<?xml version="1.0" encoding="UTF-8"?>
<svg id="Layer_1" data-name="Layer 1" xmlns="http://www.w3.org/2000/svg" viewBox="0 0 530.13 113.5">
  <defs>
    <style>
      .cls-1 {
        fill: #fcfade;
      }
    </style>
  </defs>
  <g>
    <g>
      <g>
        <path class="cls-1" d="M140.2,84.46V28.28h14.21l14.93,22.15,15.01-22.15h14.21v56.19h-12.92v-36.12l-16.21,23.76-16.29-23.76v36.12h-12.92Z"/>
        <path class="cls-1" d="M268.22,84.46V28.28h13.57l24.64,34.27V28.28h12.92v56.19h-12.92l-25.28-35.24v35.24h-12.92Z"/>
        <path class="cls-1" d="M330.27,84.46V28.28h13.57l24.64,34.27V28.28h12.92v56.19h-12.92l-25.28-35.24v35.24h-12.92Z"/>
        <path class="cls-1" d="M392.31,84.46V28.28h12.92v56.19h-12.92Z"/>
        <path class="cls-1" d="M416.15,84.46V28.28h13.57l24.64,34.27V28.28h12.92v56.19h-12.92l-25.28-35.24v35.24h-12.92Z"/>
        <path class="cls-1" d="M504.61,85.43c-5.78,0-10.88-1.24-15.29-3.73s-7.88-5.91-10.4-10.28c-2.51-4.36-3.77-9.38-3.77-15.05s1.26-10.69,3.77-15.05c2.51-4.36,5.98-7.78,10.4-10.27,4.42-2.49,9.51-3.73,15.29-3.73,3.58,0,6.83.52,9.75,1.56,2.91,1.05,5.47,2.48,7.67,4.29,2.19,1.82,4.01,3.91,5.46,6.26l-10.68,6.42c-.8-1.28-1.86-2.43-3.17-3.45-1.31-1.02-2.74-1.81-4.29-2.37-1.55-.56-3.13-.84-4.74-.84-3.16,0-5.95.72-8.39,2.17-2.43,1.44-4.35,3.47-5.74,6.06-1.39,2.6-2.09,5.58-2.09,8.95s.67,6.36,2.01,8.95c1.34,2.6,3.26,4.64,5.78,6.14s5.43,2.25,8.75,2.25c2.51,0,4.74-.48,6.66-1.45,1.93-.96,3.45-2.3,4.58-4.01,1.12-1.71,1.72-5.86,1.72-8.17l12.24.06c0,5.46-1.1,10.08-3.29,13.85s-5.19,6.62-8.99,8.55c-3.8,1.93-8.21,2.89-13.24,2.89Z"/>
      </g>
      <path class="cls-1" d="M241.09,28.19h-13.79c-6.62,17.03-13.23,34.05-19.85,51.08.29.24.74.58,1.3.97,8.83,6.14,19.71,4.01,21.23,3.69,8.99-1.89,14.44-7.61,16.29-9.75l-.37.42c1.12,3.24,2.24,6.48,3.36,9.72h13.63l-21.81-56.12ZM234.24,72.57c-4.8,1.21-8.79.48-10.72,0,3.57-9.47,7.15-18.95,10.72-28.42l8.91,23.81c-1.49,1.27-4.49,3.5-8.91,4.62Z"/>
    </g>
    <path class="cls-1" d="M517.89,90.77v-30.66h12.24c0,7.32.35,30.66-12.24,30.66Z"/>
  </g>
  <g>
    <path class="cls-1" d="M60.25,61.67c1.41,0,2.79.15,4.13.38l4.56-49.92c-.96-2.66-3.32-4.45-8.52-4.18h0c-3.62.11-7.4.47-8.76,3.42l4.3,50.7c1.39-.25,2.82-.4,4.28-.4Z"/>
    <path class="cls-1" d="M12.62,43.93c.1.22.24.43.39.62.04.05.08.09.12.14,1.99,3.93,21.71,27.67,24.75,31.69.75-1.73,1.7-3.34,2.81-4.83-3.96-6.86-20.03-34.88-22.84-39.22-3.61-1.63-7.39,6.74-5.5,10.84.06.26.16.5.28.75Z"/>
    <path class="cls-1" d="M41.3,70.74c1.43-1.76,3.1-3.31,4.95-4.62l-15.62-45.28c-.38-.53-.92-.86-1.74-.81-6.2,1.19-9.85,5.53-8.11,11.52-.63.38,18.25,34.78,20.52,39.19Z"/>
    <path class="cls-1" d="M47.18,65.5c2.31-1.47,4.87-2.57,7.62-3.2-1.76-7.67-3.45-50.98-9.11-51.11-5.72-.67-13.41,3.74-12.11,9.22l13.6,45.08Z"/>
    <path class="cls-1" d="M84.57,84.44l23.1-22.8c3.29-3.68,4.55-4.69,5.01-10.84.18-.08-.82-6.01-2.79-4.82-3.72,4.79-21.74,25.71-26.73,31.76.77,2.11,1.26,4.36,1.41,6.7Z"/>
    <path class="cls-1" d="M82.64,76.4c4.43-7.58,30.27-31.13,25.32-39.82-3.33-5.7-4.68-5.38-6.01-3.22-1.58,2.91-18.34,32.29-21.87,38.54,1,1.4,1.87,2.9,2.56,4.49Z"/>
    <path class="cls-1" d="M73.13,65.38c2-8.26,17.85-48.56,12.11-50.41-1.88-2.24-11.82-6.97-13.18-1.06-.69.83-5.71,42.5-6.52,48.35,2.73.61,5.29,1.68,7.59,3.12Z"/>
    <path class="cls-1" d="M79.26,70.81c2.45-5.02,21.49-38.55,21-41.17.26-4.96-4.97-11.28-10.25-8.92l-15.89,45.3c1.93,1.34,3.66,2.96,5.13,4.79Z"/>
    <path class="cls-1" d="M84.12,91.11c-.54,2.57-1.51,4.98-2.79,7.19,3.53-1.57,7.11-3.55,10.74-6.01,4.08-3.46,24.55-18.22,20.35-22.16-3.04,2.45-19.63,14.57-28.3,20.98Z"/>
    <path class="cls-1" d="M84.65,86.03s0,.02,0,.04c0,1.1-.1,2.18-.24,3.24,11.03-8.07,32.96-21.53,29.15-30.26l-28.91,26.99Z"/>
    <path class="cls-1" d="M120.23,59.11c-.14-1.38-.54-3.54-1.67-5.23,1.7-7.62-.99-11.59-3.68-13.59.04-6.73-3.37-12.58-8.34-14.57-.49-3.71-2.51-7.25-5.69-9.83-2.67-2.16-5.75-3.34-8.75-3.27-1.88-3.53-5.2-6.43-9.25-7.99-3.75-1.44-7.6-1.58-10.88-.44C68.8,1.5,64.61,0,60.16,0,55.71,0,51.52,1.5,48.35,4.18c-3.28-1.14-7.13-1-10.88.44-4.06,1.56-7.37,4.46-9.25,7.99-3-.07-6.09,1.11-8.75,3.27-3.18,2.58-5.2,6.12-5.68,9.83-4.98,2-8.38,7.84-8.34,14.58-2.69,2.01-5.38,5.98-3.68,13.61-1.01,1.44-1.62,3.38-1.74,5.64-.11,2.15.23,4.99,1.4,7.21-3.56,7.95,5.97,16.26,11.84,21.39,1.46,1.28,2.85,2.48,3.39,3.15l.38.39c7.86,6.68,15.27,11.01,23.95,13.98,5.17,5.06,11.94,7.84,19.17,7.84s13.99-2.77,19.15-7.83c8.62-2.95,16.04-7.29,23.97-14l.38-.38c.56-.67,1.93-1.87,3.39-3.15,5.9-5.15,15.46-13.51,11.83-21.46,1.71-2.47,1.49-6.33,1.37-7.57ZM101.41,89.35c-7.24,6.13-14.54,10.65-23.65,13.66-4.44,4.58-10.64,7.44-17.5,7.44s-13.08-2.87-17.52-7.46c-9.11-3.02-16.44-7.54-23.63-13.65-3.16-3.85-19.99-14.72-13.97-22.78-2.4-2.16-2.95-9.65.07-11.83-1.27-4.41-1.8-10.24,3.45-12.82-.72-7,2.94-13.24,8.16-13.85-.45-7.37,7.29-13.84,13.37-12.16,2.52-7.71,12.65-11.7,18.88-8.12,5.67-6.33,16.67-6.34,22.35,0,6.22-3.58,16.37.41,18.88,8.12,6.07-1.68,13.83,4.79,13.37,12.16,5.22.61,8.88,6.85,8.16,13.85,5.25,2.57,4.73,8.42,3.45,12.82,2.47,1.47,2.72,8.89.85,10.58-.29.54-.57.97-.77,1.25,6.01,8.02-10.74,18.89-13.97,22.78Z"/>
    <path class="cls-1" d="M35.95,84.28c.17-2.32.66-4.55,1.44-6.64l-21.2-25.17s-.05.05-.07.07c-.03-.03-.05-.06-.08-.09-.2-.17-.38-.36-.56-.55-.05-.05-.09-.11-.14-.17,0,0,0,0,0,0-.02-.02-.03-.04-.04-.05-.03-.05-.07-.09-.1-.14-.34-.47-.66-.96-1.01-1.42-.39-.51-.81-1-1.23-1.49-.2-.23-.39-.46-.58-.69-.02-.03-.05-.06-.07-.09-.49-.67-1.05-1.32-1.78-1.9-4.33.46-2.23,9.55-1.5,10.49-.24,1.88,19.65,20.71,26.93,27.84Z"/>
    <path class="cls-1" d="M82.21,86.06c0-12.11-9.85-21.96-21.96-21.96s-21.96,9.85-21.96,21.96c0,3.05.63,5.96,1.76,8.61-.45-1.71-.72-3.5-.72-5.35,0-7.38,3.82-13.86,9.59-17.58-4.15,3.32-6.81,8.43-6.81,14.16,0,10.02,8.12,18.14,18.14,18.14s18.14-8.12,18.14-18.14c0-5.73-2.66-10.84-6.81-14.16,5.77,3.72,9.59,10.2,9.59,17.58,0,1.85-.26,3.64-.72,5.36,1.13-2.64,1.76-5.55,1.76-8.61Z"/>
    <path class="cls-1" d="M36.08,89.2c-.13-1.03-.22-2.07-.22-3.13,0-.04,0-.08,0-.12L7,59c-3.86,8.84,17.99,22.12,29.09,30.2Z"/>
    <path class="cls-1" d="M8.14,70.09c-3.5,1.67,4.39,8.28,3.91,8.11,8.45,8.58,17.46,15.55,27.01,19.89-1.24-2.17-2.16-4.54-2.69-7.07-8.75-6.47-25.55-18.73-28.23-20.93Z"/>
  </g>
</svg>