<?xml version="1.0" encoding="UTF-8"?>
<svg id="Layer_1" data-name="Layer 1" xmlns="http://www.w3.org/2000/svg" viewBox="0 0 428.3 404.02">
  <defs>
    <style>
      .cls-1 {
        fill: #fcfade;
      }
    </style>
  </defs>
  <path class="cls-1" d="M214.49,219.53c5.03,0,9.92.52,14.72,1.34l16.23-177.7c-3.4-9.48-11.81-15.82-30.32-14.87v-.03c-12.9.42-26.35,1.68-31.19,12.19l15.32,180.49c4.96-.88,10.03-1.43,15.24-1.43Z"/>
  <path class="cls-1" d="M44.93,156.39c.36.79.85,1.52,1.38,2.21.13.18.28.33.41.51,7.08,13.97,77.27,98.49,88.09,112.82,2.67-6.14,6.07-11.87,10.02-17.19-14.1-24.43-71.32-124.16-81.29-139.63-12.85-5.8-26.3,23.98-19.58,38.59.23.91.57,1.79.98,2.69Z"/>
  <path class="cls-1" d="M147.02,251.81c5.08-6.27,11.03-11.8,17.64-16.45l-55.62-161.18c-1.36-1.87-3.26-3.06-6.18-2.89-22.06,4.23-35.07,19.68-28.88,41.01-2.23,1.35,64.96,123.8,73.04,139.51Z"/>
  <path class="cls-1" d="M167.96,233.17c8.22-5.24,17.35-9.14,27.13-11.38-6.28-27.3-12.27-181.49-32.44-181.94-20.36-2.39-47.74,13.31-43.11,32.83l48.43,160.49Z"/>
  <path class="cls-1" d="M301.03,300.58l82.23-81.17c11.72-13.1,16.19-16.71,17.83-38.6.64-.27-2.9-21.4-9.93-17.15-13.24,17.04-77.4,91.52-95.14,113.07,2.74,7.53,4.47,15.52,5.02,23.84Z"/>
  <path class="cls-1" d="M294.2,271.98c15.77-26.97,107.75-110.81,90.15-141.74-11.84-20.29-16.67-19.14-21.4-11.45-5.61,10.36-65.27,114.95-77.85,137.2,3.56,4.98,6.65,10.31,9.1,15.99Z"/>
  <path class="cls-1" d="M260.32,232.74c7.11-29.41,63.54-172.85,43.12-179.43-6.68-7.98-42.07-24.83-46.93-3.77-2.46,2.97-20.33,151.3-23.22,172.1,9.73,2.16,18.83,5.98,27.04,11.11Z"/>
  <path class="cls-1" d="M282.14,252.06c8.72-17.87,76.5-137.23,74.75-146.54.94-17.66-17.69-40.15-36.47-31.74l-56.56,161.25c6.88,4.78,13.04,10.52,18.28,17.04Z"/>
  <path class="cls-1" d="M299.43,324.33c-1.93,9.15-5.36,17.74-9.94,25.58,12.57-5.6,25.32-12.64,38.25-21.39,14.54-12.31,87.38-64.86,72.43-78.89-10.82,8.72-69.87,51.85-100.74,74.7Z"/>
  <path class="cls-1" d="M301.32,306.23s0,.08,0,.13c0,3.92-.35,7.75-.86,11.54,39.28-28.72,117.35-76.64,103.77-107.73l-102.92,96.07Z"/>
  <path class="cls-1" d="M428,210.41c-.49-4.92-1.91-12.62-5.96-18.62,6.06-27.14-3.53-41.24-13.11-48.39.14-23.97-11.98-44.77-29.7-51.87-1.73-13.19-8.93-25.82-20.25-35-9.49-7.69-20.46-11.89-31.13-11.65-6.7-12.58-18.5-22.89-32.94-28.44-13.36-5.13-27.05-5.62-38.74-1.56C244.89,5.34,229.98,0,214.14,0,198.31,0,183.4,5.34,172.11,14.87c-11.69-4.06-25.39-3.57-38.73,1.56-14.44,5.55-26.24,15.86-32.94,28.45-10.66-.26-21.67,3.96-31.15,11.65-11.31,9.17-18.5,21.8-20.24,35-17.72,7.1-29.84,27.92-29.7,51.88-9.56,7.16-19.15,21.29-13.09,48.43-3.61,5.14-5.75,12.02-6.19,20.08-.41,7.65.82,17.75,4.99,25.67-12.69,28.29,21.24,57.89,42.16,76.15,5.21,4.55,10.14,8.85,12.07,11.2l1.36,1.38c27.97,23.77,54.36,39.2,85.26,49.78,18.39,18.03,42.51,27.92,68.23,27.92s49.79-9.87,68.17-27.87c30.68-10.5,57.1-25.94,85.31-49.82l1.34-1.35c1.98-2.39,6.88-6.67,12.07-11.21,20.99-18.33,55.04-48.08,42.11-76.41,6.08-8.8,5.31-22.55,4.87-26.96ZM360.98,318.08c-25.78,21.82-51.78,37.9-84.19,48.64-15.79,16.3-37.87,26.48-62.3,26.48s-46.55-10.21-62.35-26.54c-32.42-10.75-58.53-26.83-84.13-48.59-11.24-13.7-71.18-52.4-49.71-81.09-8.55-7.67-10.49-34.36.26-42.11-4.53-15.71-6.41-36.45,12.29-45.64-2.58-24.9,10.45-47.12,29.03-49.3-1.61-26.23,25.95-49.26,47.6-43.29,8.96-27.43,45.04-41.64,67.22-28.9,20.18-22.53,59.36-22.57,79.57,0,22.14-12.73,58.27,1.45,67.22,28.9,21.59-5.99,49.24,17.05,47.6,43.29,18.57,2.18,31.61,24.4,29.03,49.3,18.69,9.16,16.83,29.96,12.29,45.64,8.8,5.23,9.68,31.63,3.01,37.67-1.03,1.92-2.03,3.44-2.75,4.45,21.4,28.56-38.24,67.25-49.72,81.09Z"/>
  <path class="cls-1" d="M127.97,300.03c.6-8.26,2.36-16.18,5.12-23.64l-75.47-89.61c-.08.09-.18.17-.25.26-.1-.1-.17-.21-.28-.31-.71-.61-1.37-1.27-1.98-1.97-.17-.19-.33-.39-.5-.59,0,0,0,0-.01-.01-.06-.08-.11-.15-.14-.19-.12-.17-.24-.33-.36-.5-1.2-1.69-2.34-3.41-3.61-5.05-1.4-1.82-2.89-3.57-4.38-5.32-.7-.81-1.39-1.63-2.08-2.45-.09-.1-.17-.21-.25-.31-1.74-2.39-3.73-4.69-6.34-6.76-15.43,1.62-7.94,33.98-5.35,37.33-.85,6.7,69.95,73.73,95.88,99.12Z"/>
  <path class="cls-1" d="M292.67,306.36c0-43.1-35.07-78.17-78.18-78.17s-78.17,35.07-78.17,78.17c0,10.87,2.24,21.22,6.26,30.63-1.61-6.09-2.56-12.46-2.56-19.06,0-26.26,13.61-49.33,34.14-62.59-14.78,11.83-24.25,30.01-24.25,50.42,0,35.66,28.91,64.57,64.57,64.57s64.57-28.91,64.57-64.57c0-20.4-9.47-38.59-24.25-50.42,20.54,13.26,34.14,36.33,34.14,62.59,0,6.6-.94,12.97-2.56,19.06,4.03-9.41,6.27-19.77,6.27-30.64Z"/>
  <path class="cls-1" d="M128.45,317.51c-.47-3.66-.8-7.37-.8-11.15,0-.15.02-.29.02-.43L24.91,210.01c-13.75,31.48,64.06,78.75,103.54,107.5Z"/>
  <path class="cls-1" d="M28.97,249.5c-12.46,5.94,15.63,29.48,13.91,28.86,30.08,30.54,62.17,55.36,96.14,70.8-4.4-7.73-7.7-16.17-9.56-25.15-31.16-23.05-90.94-66.67-100.49-74.51Z"/>
</svg>